<svg xmlns="http://www.w3.org/2000/svg" xmlns:xlink="http://www.w3.org/1999/xlink"><defs>
        <clipPath id="a">
            <path fill="#fff" transform="translate(.5 .041)" d="M0 0h102v39.142H0z"/>
        </clipPath>
    </defs><symbol id="Button"><g fill="none">
    <path d="M.5 16.183c0-8.836 7.163-16 16-16h266.667c8.836 0 16 7.164 16 16v24c0 8.837-7.164 16-16 16H16.5c-8.837 0-16-7.163-16-16v-24Z" fill="#9534D2"/>
    <path d="M114.976 22.547v11.636h-2.091v-9.886h-5.091v9.886h-2.091V22.547h9.273Zm6.237 11.807c-.853 0-1.591-.188-2.216-.563a3.823 3.823 0 0 1-1.455-1.574c-.341-.674-.511-1.462-.511-2.363 0-.902.17-1.692.511-2.37a3.815 3.815 0 0 1 1.455-1.58c.625-.374 1.363-.562 2.216-.562.852 0 1.591.188 2.216.563a3.775 3.775 0 0 1 1.449 1.58c.344.677.517 1.467.517 2.369 0 .901-.173 1.689-.517 2.363a3.783 3.783 0 0 1-1.449 1.574c-.625.375-1.364.563-2.216.563Zm.011-1.648c.462 0 .849-.127 1.159-.38.311-.258.542-.603.693-1.035.156-.432.233-.913.233-1.443 0-.534-.077-1.017-.233-1.449-.151-.436-.382-.782-.693-1.04-.31-.257-.697-.386-1.159-.386-.473 0-.867.129-1.182.386-.31.258-.543.604-.699 1.04a4.369 4.369 0 0 0-.227 1.449c0 .53.076 1.011.227 1.443.156.432.389.777.699 1.034.315.254.709.38 1.182.38Zm5.144 4.011V32.49h.693c.185-.144.341-.34.466-.585.125-.25.227-.544.306-.881.084-.34.152-.722.205-1.142.053-.424.1-.88.142-1.37l.25-3.056h6.307v7.034h1.352v4.227h-1.988v-2.534h-5.711v2.534h-2.022Zm2.806-4.227h3.597v-5.375h-2.557l-.136 1.398a23.179 23.179 0 0 1-.301 2.375c-.125.659-.326 1.193-.603 1.602Zm8.451 4.966v-12h2.022v1.443h.12c.106-.212.255-.438.449-.676.193-.242.454-.449.784-.62.329-.174.75-.26 1.261-.26.674 0 1.282.172 1.824.516.545.341.977.847 1.295 1.517.322.667.483 1.485.483 2.455 0 .958-.157 1.773-.471 2.443-.315.67-.743 1.182-1.284 1.534a3.304 3.304 0 0 1-1.841.529c-.5 0-.915-.084-1.245-.25a2.538 2.538 0 0 1-.795-.603 3.903 3.903 0 0 1-.46-.676h-.085v4.648h-2.057Zm2.017-7.637c0 .565.079 1.06.238 1.483.163.425.396.756.699.995.307.235.678.352 1.114.352.454 0 .835-.121 1.142-.364.307-.246.538-.581.693-1.005.159-.428.239-.915.239-1.46 0-.542-.078-1.023-.233-1.444-.156-.42-.387-.75-.693-.988-.307-.239-.69-.358-1.148-.358-.44 0-.813.115-1.119.346-.307.231-.54.555-.699.972-.156.417-.233.907-.233 1.472Zm11.79 4.535c-.853 0-1.591-.188-2.216-.563a3.823 3.823 0 0 1-1.455-1.574c-.341-.674-.511-1.462-.511-2.363 0-.902.17-1.692.511-2.37a3.815 3.815 0 0 1 1.455-1.58c.625-.374 1.363-.562 2.216-.562.852 0 1.59.188 2.215.563a3.775 3.775 0 0 1 1.449 1.58c.345.677.517 1.467.517 2.369 0 .901-.172 1.689-.517 2.363a3.783 3.783 0 0 1-1.449 1.574c-.625.375-1.363.563-2.215.563Zm.011-1.648c.462 0 .848-.127 1.159-.38.311-.258.542-.603.693-1.035.155-.432.233-.913.233-1.443 0-.534-.078-1.017-.233-1.449-.151-.436-.382-.782-.693-1.04-.311-.257-.697-.386-1.159-.386-.474 0-.868.129-1.182.386-.311.258-.544.604-.699 1.04a4.369 4.369 0 0 0-.227 1.449c0 .53.076 1.011.227 1.443.155.432.388.777.699 1.034.314.254.708.38 1.182.38Zm12.91-10.477.716 1.33a2.37 2.37 0 0 1-.852.476 4.894 4.894 0 0 1-1.108.194c-.42.026-.92.045-1.5.056-.651.015-1.184.139-1.597.37-.412.23-.729.581-.948 1.05-.22.467-.364 1.061-.432 1.785h.096a2.872 2.872 0 0 1 1.148-1.222c.493-.28 1.07-.42 1.733-.42.724 0 1.362.163 1.915.489.557.322.99.79 1.301 1.403.314.614.472 1.356.472 2.227 0 .898-.169 1.676-.506 2.335a3.607 3.607 0 0 1-1.438 1.517c-.617.356-1.35.535-2.198.535-.845 0-1.58-.184-2.205-.552-.621-.37-1.102-.918-1.443-1.642-.337-.727-.506-1.623-.506-2.687v-.784c0-2.053.383-3.585 1.148-4.597.765-1.011 1.899-1.526 3.403-1.545.447-.008.847-.01 1.199-.006.356.004.667-.013.932-.051s.489-.125.67-.261Zm-3.187 10.477c.42 0 .784-.108 1.091-.324.307-.22.541-.53.704-.932.167-.401.25-.877.25-1.426 0-.542-.083-1.002-.25-1.38a1.93 1.93 0 0 0-.71-.876c-.307-.2-.672-.3-1.096-.3-.319 0-.605.056-.858.17-.254.113-.47.28-.648.5-.178.22-.315.486-.409.8a4.033 4.033 0 0 0-.154 1.086c0 .822.186 1.475.557 1.96.371.481.879.722 1.523.722Zm11.875-3.739v1.688h-4.648v-1.688h4.648Zm-4.011-3.511v8.727h-1.983v-8.727h1.983Zm5.357 0v8.727h-1.977v-8.727h1.977Zm5.945 8.898c-.875 0-1.631-.182-2.267-.546a3.692 3.692 0 0 1-1.46-1.557c-.341-.674-.512-1.467-.512-2.38 0-.898.171-1.686.512-2.364a3.864 3.864 0 0 1 1.443-1.59c.617-.384 1.343-.575 2.176-.575.538 0 1.046.087 1.523.262.481.17.905.435 1.273.795.371.36.662.818.875 1.375.212.553.318 1.212.318 1.977v.631h-7.154v-1.386h5.182a2.211 2.211 0 0 0-.256-1.051 1.854 1.854 0 0 0-.698-.733 1.968 1.968 0 0 0-1.034-.267c-.421 0-.79.102-1.108.306-.319.201-.567.466-.745.796a2.295 2.295 0 0 0-.267 1.074v1.21c0 .507.093.943.279 1.307.185.36.445.636.778.83.333.189.724.283 1.17.283.3 0 .571-.041.813-.125.242-.087.453-.214.631-.38.178-.167.312-.374.403-.62l1.921.216c-.122.508-.353.951-.694 1.33a3.38 3.38 0 0 1-1.295.875c-.527.204-1.129.307-1.807.307Zm9.484 0c-.875 0-1.63-.182-2.267-.546a3.698 3.698 0 0 1-1.46-1.557c-.341-.674-.511-1.467-.511-2.38 0-.898.17-1.686.511-2.364a3.871 3.871 0 0 1 1.443-1.59c.618-.384 1.343-.575 2.176-.575.538 0 1.046.087 1.523.262.481.17.906.435 1.273.795.371.36.663.818.875 1.375.212.553.318 1.212.318 1.977v.631h-7.153v-1.386h5.182a2.211 2.211 0 0 0-.256-1.051c-.167-.311-.4-.555-.699-.733a1.963 1.963 0 0 0-1.034-.267c-.421 0-.79.102-1.108.306-.318.201-.566.466-.744.796a2.271 2.271 0 0 0-.267 1.074v1.21c0 .507.092.943.278 1.307.186.36.445.636.778.83.334.189.724.283 1.171.283.299 0 .57-.041.812-.125.243-.087.453-.214.631-.38.178-.167.313-.374.403-.62l1.921.216a2.99 2.99 0 0 1-.693 1.33 3.377 3.377 0 0 1-1.296.875c-.526.204-1.129.307-1.807.307Z" fill="#fff"/>
</g></symbol><symbol id="exit" viewBox="0 0 25 25"><g fill="none">
    <path d="M14.97 20.937a.675.675 0 0 0-.674-.675H5.324a.5.5 0 0 1-.5-.5v-14.3a.5.5 0 0 1 .5-.5h8.972a.675.675 0 1 0 0-1.35H5.5a2 2 0 0 0-2 2v14a2 2 0 0 0 2 2h8.796a.675.675 0 0 0 .675-.675Zm-1.575-8.685a.63.63 0 0 0 0 1.26h5.546l-2.171 2.215a.693.693 0 0 0 .99.97l3.054-3.115a1 1 0 0 0 0-1.4L17.76 9.067a.693.693 0 1 0-.99.97l2.171 2.215h-5.546Z" fill="#97A1AF"/>
</g></symbol><symbol id="logo" viewBox="0 0 103 40"><g fill="none">
    <g clip-path="url(#a)" fill="#9534D2">
        <path d="M12.348 8.2v9.662H1.638V8.2h2.025v8.043h2.374V8.2H7.95v8.043h2.387V8.2h2.011Zm9.329 9.662h-2.025v-3.881c0-1.322.098-2.56.293-3.715l-3.044 7.596h-2.513V8.2h2.025v3.924c0 .781-.028 1.433-.084 1.954-.047.512-.117 1.08-.21 1.704l3.1-7.582h2.457v9.662Zm12.454-4.887c0 1.387-.4 2.44-1.2 3.156-.801.707-1.914 1.084-3.338 1.13v1.132h-1.997v-1.145c-1.442-.065-2.56-.447-3.35-1.145-.792-.708-1.188-1.736-1.188-3.086 0-1.387.4-2.434 1.201-3.142.8-.716 1.913-1.098 3.337-1.144V7.683h1.997v1.061c1.443.066 2.56.452 3.351 1.16.791.697 1.187 1.722 1.187 3.071ZM29.51 15.95c.885-.056 1.527-.32 1.927-.796.4-.474.6-1.2.6-2.178 0-.958-.204-1.675-.614-2.15-.41-.475-1.047-.735-1.913-.782v5.906Zm-4.356-2.932c0 .959.205 1.676.614 2.15.41.475 1.047.736 1.913.782v-5.906c-.884.056-1.526.321-1.927.796-.4.475-.6 1.2-.6 2.178ZM41.428 8.2l-.224 1.606h-2.443v8.056h-2.053V9.806H34.14V8.2h7.289ZM5.45 24.297c.605 0 1.131.089 1.578.266.447.167.884.428 1.313.782L7.32 26.53c-.558-.456-1.145-.684-1.759-.684-.689 0-1.238.284-1.648.852-.4.558-.6 1.438-.6 2.639 0 1.173.2 2.043.6 2.611.41.558.964.838 1.662.838.363 0 .694-.065.991-.196.298-.14.61-.335.936-.586l.95 1.187a4.184 4.184 0 0 1-1.285.88 4.08 4.08 0 0 1-1.676.334c-.865 0-1.624-.195-2.276-.586-.651-.39-1.159-.963-1.522-1.717-.363-.764-.544-1.685-.544-2.765 0-1.052.186-1.955.558-2.709.373-.763.885-1.34 1.536-1.731.652-.4 1.387-.6 2.206-.6Zm6.218.224v9.662H9.615v-9.662h2.053Zm9.34 9.662H18.37l-3.072-7.666c.084.661.15 1.285.196 1.872.056.577.084 1.256.084 2.038v3.756H13.72v-9.662h2.583l3.128 7.68a23.406 23.406 0 0 1-.28-3.436v-4.244h1.857v9.662Zm7.805-9.662-.223 1.494H25.1v2.513h3.043v1.48h-3.044v2.667h3.742v1.508h-5.794v-9.662h5.766Zm10.98 9.662h-2.011l-.21-3.924a55.25 55.25 0 0 1-.097-2.988c0-.437.004-.754.014-.95l-1.634 6.829h-1.94l-1.746-6.842c.037.568.056 1.205.056 1.913 0 .754-.019 1.447-.056 2.08l-.21 3.882h-1.996l.754-9.662h2.61l1.593 6.66 1.494-6.66h2.639l.74 9.662Zm6.69 0-.544-2.164h-3.03l-.545 2.164h-2.136l2.974-9.662h2.5l2.96 9.662h-2.179ZM43.3 30.497h2.248l-1.131-4.454-1.117 4.454ZM63.806 19.539h-3.102a2.394 2.394 0 0 0 0 4.787h3.975c.67 0 1.253.44 1.486 1.067a18.415 18.415 0 0 0 3.21 5.485c.7.826.123 2.093-.96 2.093h-3.21c-1.145 0-2.133.881-2.187 2.027a2.13 2.13 0 0 0 2.127 2.232h15.743c.836.117 1.688.177 2.556.177 10.257 0 18.56-8.382 18.427-18.672C101.742 8.785 93.62.672 83.671.55a18.434 18.434 0 0 0-4.063.4c-3.127.663-6.32.97-9.516.97H54.834c-1.29 0-2.4.99-2.46 2.28a2.395 2.395 0 0 0 2.391 2.511h9.806c2.025 0 3.346 2.137 2.43 3.941-.011.021-.02.042-.032.063a2.715 2.715 0 0 1-2.429 1.495H51.994c-1.29 0-2.4.99-2.46 2.28a2.395 2.395 0 0 0 2.391 2.512h11.88a1.267 1.267 0 1 1 0 2.535l.001.002Zm14.47-11.61c.166-2.577 2.26-4.668 4.836-4.829a5.18 5.18 0 0 1 5.502 5.507c-.163 2.579-2.254 4.67-4.835 4.833a5.18 5.18 0 0 1-5.505-5.513l.002.002ZM67.912 16.18a5.18 5.18 0 0 1 5.508-5.5c2.58.163 4.672 2.257 4.834 4.837a5.181 5.181 0 0 1-5.517 5.503c-2.577-.167-4.665-2.26-4.827-4.838l.002-.002Zm14.03 11.901c-.162 2.579-2.254 4.67-4.832 4.833a5.182 5.182 0 0 1-5.509-5.513c.168-2.578 2.261-4.667 4.84-4.828a5.182 5.182 0 0 1 5.502 5.508Zm1.8-7.407a1.72 1.72 0 0 1-.593-3.388 1.72 1.72 0 1 1 .594 3.39v-.002Zm11.55 7.404c-.161 2.578-2.251 4.672-4.83 4.836a5.18 5.18 0 0 1-5.51-5.51c.165-2.577 2.255-4.669 4.832-4.831a5.184 5.184 0 0 1 5.508 5.505Zm-1.482-7.047a5.182 5.182 0 0 1-5.183-5.18c0-2.859 2.523-5.378 5.553-5.168 2.556.178 4.626 2.25 4.8 4.807a5.181 5.181 0 0 1-5.169 5.543l-.001-.002Z"/>
        <rect x="54.583" y="33.05" width="6.429" height="4.286" rx="2.143"/>
        <rect x="41.903" y="1.978" width="8.036" height="4.643" rx="2.277"/>
    </g>
    
</g></symbol><symbol id="Union" viewBox="0 0 8 12"><g fill="none">
    <path d="M6.864 10.409a.76.76 0 1 1-1.073 1.075L1.034 6.726a1 1 0 0 1-.002-1.412L5.766.56a.76.76 0 1 1 1.075 1.073L2.453 6.02l4.41 4.388Z" fill="#97A1AF"/>
</g></symbol></svg>