<svg xmlns="http://www.w3.org/2000/svg" xmlns:xlink="http://www.w3.org/1999/xlink"><defs>
        <clipPath id="a">
            <path fill="#fff" transform="translate(.5 .041)" d="M0 0h102v39.142H0z"/>
        </clipPath>
    </defs><symbol id="close" viewBox="0 0 512 512"><g style="enable-background:new 0 0 512 512">
    <style>
        .st1{fill:none;stroke:#000;stroke-width:16;stroke-linecap:round;stroke-linejoin:round;stroke-miterlimit:10}
    </style>
    <path d="m268.064 256.75 138.593-138.593a8 8 0 1 0-11.314-11.313L256.75 245.436 118.157 106.843a8 8 0 0 0-11.313 0 7.998 7.998 0 0 0 0 11.313L245.436 256.75 106.843 395.343a7.999 7.999 0 0 0 0 11.314c1.562 1.562 3.609 2.343 5.657 2.343s4.095-.781 5.657-2.343L256.75 268.064l138.593 138.593c1.563 1.562 3.609 2.343 5.657 2.343s4.095-.781 5.657-2.343a8 8 0 0 0 0-11.314L268.064 256.75z" id="cross_copy"/>
</g></symbol><symbol id="exit" viewBox="0 0 25 25"><g fill="none">
    <path d="M14.97 20.937a.675.675 0 0 0-.674-.675H5.324a.5.5 0 0 1-.5-.5v-14.3a.5.5 0 0 1 .5-.5h8.972a.675.675 0 1 0 0-1.35H5.5a2 2 0 0 0-2 2v14a2 2 0 0 0 2 2h8.796a.675.675 0 0 0 .675-.675Zm-1.575-8.685a.63.63 0 0 0 0 1.26h5.546l-2.171 2.215a.693.693 0 0 0 .99.97l3.054-3.115a1 1 0 0 0 0-1.4L17.76 9.067a.693.693 0 1 0-.99.97l2.171 2.215h-5.546Z" fill="#97A1AF"/>
</g></symbol><symbol id="logo" viewBox="0 0 103 40"><g fill="none">
    <g clip-path="url(#a)" fill="#9534D2">
        <path d="M12.348 8.2v9.662H1.638V8.2h2.025v8.043h2.374V8.2H7.95v8.043h2.387V8.2h2.011Zm9.329 9.662h-2.025v-3.881c0-1.322.098-2.56.293-3.715l-3.044 7.596h-2.513V8.2h2.025v3.924c0 .781-.028 1.433-.084 1.954-.047.512-.117 1.08-.21 1.704l3.1-7.582h2.457v9.662Zm12.454-4.887c0 1.387-.4 2.44-1.2 3.156-.801.707-1.914 1.084-3.338 1.13v1.132h-1.997v-1.145c-1.442-.065-2.56-.447-3.35-1.145-.792-.708-1.188-1.736-1.188-3.086 0-1.387.4-2.434 1.201-3.142.8-.716 1.913-1.098 3.337-1.144V7.683h1.997v1.061c1.443.066 2.56.452 3.351 1.16.791.697 1.187 1.722 1.187 3.071ZM29.51 15.95c.885-.056 1.527-.32 1.927-.796.4-.474.6-1.2.6-2.178 0-.958-.204-1.675-.614-2.15-.41-.475-1.047-.735-1.913-.782v5.906Zm-4.356-2.932c0 .959.205 1.676.614 2.15.41.475 1.047.736 1.913.782v-5.906c-.884.056-1.526.321-1.927.796-.4.475-.6 1.2-.6 2.178ZM41.428 8.2l-.224 1.606h-2.443v8.056h-2.053V9.806H34.14V8.2h7.289ZM5.45 24.297c.605 0 1.131.089 1.578.266.447.167.884.428 1.313.782L7.32 26.53c-.558-.456-1.145-.684-1.759-.684-.689 0-1.238.284-1.648.852-.4.558-.6 1.438-.6 2.639 0 1.173.2 2.043.6 2.611.41.558.964.838 1.662.838.363 0 .694-.065.991-.196.298-.14.61-.335.936-.586l.95 1.187a4.184 4.184 0 0 1-1.285.88 4.08 4.08 0 0 1-1.676.334c-.865 0-1.624-.195-2.276-.586-.651-.39-1.159-.963-1.522-1.717-.363-.764-.544-1.685-.544-2.765 0-1.052.186-1.955.558-2.709.373-.763.885-1.34 1.536-1.731.652-.4 1.387-.6 2.206-.6Zm6.218.224v9.662H9.615v-9.662h2.053Zm9.34 9.662H18.37l-3.072-7.666c.084.661.15 1.285.196 1.872.056.577.084 1.256.084 2.038v3.756H13.72v-9.662h2.583l3.128 7.68a23.406 23.406 0 0 1-.28-3.436v-4.244h1.857v9.662Zm7.805-9.662-.223 1.494H25.1v2.513h3.043v1.48h-3.044v2.667h3.742v1.508h-5.794v-9.662h5.766Zm10.98 9.662h-2.011l-.21-3.924a55.25 55.25 0 0 1-.097-2.988c0-.437.004-.754.014-.95l-1.634 6.829h-1.94l-1.746-6.842c.037.568.056 1.205.056 1.913 0 .754-.019 1.447-.056 2.08l-.21 3.882h-1.996l.754-9.662h2.61l1.593 6.66 1.494-6.66h2.639l.74 9.662Zm6.69 0-.544-2.164h-3.03l-.545 2.164h-2.136l2.974-9.662h2.5l2.96 9.662h-2.179ZM43.3 30.497h2.248l-1.131-4.454-1.117 4.454ZM63.806 19.539h-3.102a2.394 2.394 0 0 0 0 4.787h3.975c.67 0 1.253.44 1.486 1.067a18.415 18.415 0 0 0 3.21 5.485c.7.826.123 2.093-.96 2.093h-3.21c-1.145 0-2.133.881-2.187 2.027a2.13 2.13 0 0 0 2.127 2.232h15.743c.836.117 1.688.177 2.556.177 10.257 0 18.56-8.382 18.427-18.672C101.742 8.785 93.62.672 83.671.55a18.434 18.434 0 0 0-4.063.4c-3.127.663-6.32.97-9.516.97H54.834c-1.29 0-2.4.99-2.46 2.28a2.395 2.395 0 0 0 2.391 2.511h9.806c2.025 0 3.346 2.137 2.43 3.941-.011.021-.02.042-.032.063a2.715 2.715 0 0 1-2.429 1.495H51.994c-1.29 0-2.4.99-2.46 2.28a2.395 2.395 0 0 0 2.391 2.512h11.88a1.267 1.267 0 1 1 0 2.535l.001.002Zm14.47-11.61c.166-2.577 2.26-4.668 4.836-4.829a5.18 5.18 0 0 1 5.502 5.507c-.163 2.579-2.254 4.67-4.835 4.833a5.18 5.18 0 0 1-5.505-5.513l.002.002ZM67.912 16.18a5.18 5.18 0 0 1 5.508-5.5c2.58.163 4.672 2.257 4.834 4.837a5.181 5.181 0 0 1-5.517 5.503c-2.577-.167-4.665-2.26-4.827-4.838l.002-.002Zm14.03 11.901c-.162 2.579-2.254 4.67-4.832 4.833a5.182 5.182 0 0 1-5.509-5.513c.168-2.578 2.261-4.667 4.84-4.828a5.182 5.182 0 0 1 5.502 5.508Zm1.8-7.407a1.72 1.72 0 0 1-.593-3.388 1.72 1.72 0 1 1 .594 3.39v-.002Zm11.55 7.404c-.161 2.578-2.251 4.672-4.83 4.836a5.18 5.18 0 0 1-5.51-5.51c.165-2.577 2.255-4.669 4.832-4.831a5.184 5.184 0 0 1 5.508 5.505Zm-1.482-7.047a5.182 5.182 0 0 1-5.183-5.18c0-2.859 2.523-5.378 5.553-5.168 2.556.178 4.626 2.25 4.8 4.807a5.181 5.181 0 0 1-5.169 5.543l-.001-.002Z"/>
        <rect x="54.583" y="33.05" width="6.429" height="4.286" rx="2.143"/>
        <rect x="41.903" y="1.978" width="8.036" height="4.643" rx="2.277"/>
    </g>
    
</g></symbol><symbol id="Union" viewBox="0 0 8 12"><g fill="none">
    <path d="M6.864 10.409a.76.76 0 1 1-1.073 1.075L1.034 6.726a1 1 0 0 1-.002-1.412L5.766.56a.76.76 0 1 1 1.075 1.073L2.453 6.02l4.41 4.388Z" fill="#97A1AF"/>
</g></symbol></svg>